<?xml version="1.0" encoding="UTF-8"?>
<svg xmlns="http://www.w3.org/2000/svg" viewBox="0 0 1200 630" width="1200" height="630">
  <defs>
    <linearGradient id="g41008" x1="69.53655642446368%" y1="3.9747573273779793%" x2="30.46344357553632%" y2="96.02524267262203%">
      <stop offset="0%" stop-color="#7C3AED"/>
      <stop offset="100%" stop-color="#6D28D9"/>
    </linearGradient>
  </defs>
  <rect width="1200" height="630" fill="url(#g41008)"/>
  <path d="M 98.9606265630573 190.28793340316042 L 6.554679910186678 190.28793340316042 L 6.554679910186678 146.52242369716987" fill="none" stroke="rgba(255,255,255,0.11770089235156775)" stroke-width="2"/><circle cx="98.9606265630573" cy="190.28793340316042" r="4" fill="rgba(255,255,255,0.15)"/><path d="M 860.1389554515481 315.7107344875112 L 956.6441405122168 315.7107344875112 L 956.6441405122168 200.67673100624233" fill="none" stroke="rgba(255,255,255,0.08494075011461974)" stroke-width="2"/><circle cx="860.1389554515481" cy="315.7107344875112" r="4" fill="rgba(255,255,255,0.15)"/><path d="M 278.6430485267192 385.8360346779227 L 500.9728728001937 385.8360346779227 L 500.9728728001937 300.96631072461605" fill="none" stroke="rgba(255,255,255,0.12083623701706529)" stroke-width="2"/><circle cx="278.6430485267192" cy="385.8360346779227" r="4" fill="rgba(255,255,255,0.15)"/><path d="M 1057.9969616793096 365.7624354865402 L 1180.284812094178 365.7624354865402 L 1180.284812094178 288.2702029403299" fill="none" stroke="rgba(255,255,255,0.13303709603846076)" stroke-width="2"/><circle cx="1057.9969616793096" cy="365.7624354865402" r="4" fill="rgba(255,255,255,0.15)"/><path d="M 344.084973372519 125.6118113710545 L 135.62631155364215 125.6118113710545 L 135.62631155364215 72.96174676856026" fill="none" stroke="rgba(255,255,255,0.10459282871335746)" stroke-width="2"/><circle cx="344.084973372519" cy="125.6118113710545" r="4" fill="rgba(255,255,255,0.15)"/><text x="572.0457799732685" y="201.9226142205298" font-family="monospace" font-size="120" fill="rgba(255,255,255,0.07)">&lt;/&gt;</text><text x="666.4730233885348" y="461.88159477198496" font-family="monospace" font-size="45.49843989685178" fill="rgba(255,255,255,0.1261052386276424)">0</text><text x="337.0369581133127" y="362.7287436439656" font-family="monospace" font-size="42.949691413901746" fill="rgba(255,255,255,0.05712175974622369)">0</text><text x="955.6482984684408" y="424.2792684491724" font-family="monospace" font-size="24.7575791971758" fill="rgba(255,255,255,0.05010510563850403)">1</text><text x="837.0875821448863" y="429.8644041712396" font-family="monospace" font-size="26.418700522743165" fill="rgba(255,255,255,0.05970371657982469)">1</text><text x="443.7654912658036" y="171.18208524771035" font-family="monospace" font-size="40.43988468218595" fill="rgba(255,255,255,0.08464725282043219)">1</text><text x="562.1015147864819" y="155.15442783711478" font-family="monospace" font-size="28.97794545441866" fill="rgba(255,255,255,0.10716020470485091)">1</text><text x="759.0165480785072" y="344.8103244928643" font-family="monospace" font-size="48.93744215276092" fill="rgba(255,255,255,0.08076622271910311)">0</text><rect x="958.3811950869858" y="359.21268044039607" width="16" height="16" rx="2" fill="rgba(255,255,255,0.1)"/><rect x="978.3811950869858" y="359.21268044039607" width="16" height="16" rx="2" fill="rgba(255,255,255,0.04)"/><rect x="998.3811950869858" y="359.21268044039607" width="16" height="16" rx="2" fill="rgba(255,255,255,0.1)"/><rect x="1018.3811950869858" y="359.21268044039607" width="16" height="16" rx="2" fill="rgba(255,255,255,0.04)"/><rect x="1038.3811950869858" y="359.21268044039607" width="16" height="16" rx="2" fill="rgba(255,255,255,0.04)"/><rect x="958.3811950869858" y="379.21268044039607" width="16" height="16" rx="2" fill="rgba(255,255,255,0.04)"/><rect x="978.3811950869858" y="379.21268044039607" width="16" height="16" rx="2" fill="rgba(255,255,255,0.04)"/><rect x="998.3811950869858" y="379.21268044039607" width="16" height="16" rx="2" fill="rgba(255,255,255,0.1)"/><rect x="1018.3811950869858" y="379.21268044039607" width="16" height="16" rx="2" fill="rgba(255,255,255,0.1)"/><rect x="1038.3811950869858" y="379.21268044039607" width="16" height="16" rx="2" fill="rgba(255,255,255,0.04)"/><rect x="958.3811950869858" y="399.21268044039607" width="16" height="16" rx="2" fill="rgba(255,255,255,0.1)"/><rect x="978.3811950869858" y="399.21268044039607" width="16" height="16" rx="2" fill="rgba(255,255,255,0.04)"/><rect x="998.3811950869858" y="399.21268044039607" width="16" height="16" rx="2" fill="rgba(255,255,255,0.1)"/><rect x="1018.3811950869858" y="399.21268044039607" width="16" height="16" rx="2" fill="rgba(255,255,255,0.04)"/><rect x="1038.3811950869858" y="399.21268044039607" width="16" height="16" rx="2" fill="rgba(255,255,255,0.04)"/>
  <circle cx="370.27586605399847" cy="523.6258529964834" r="1.876938666217029" fill="rgba(255,255,255,0.0679864442627877)"/><circle cx="106.50660926476121" cy="216.69953770469874" r="2.1077838046476245" fill="rgba(255,255,255,0.07580794272478669)"/><circle cx="296.5715780854225" cy="315.2827462996356" r="1.6367359305731952" fill="rgba(255,255,255,0.06278647187398748)"/><circle cx="538.9904019422829" cy="496.27713763620704" r="2.744715003296733" fill="rgba(255,255,255,0.06895125100389124)"/><circle cx="409.9991787225008" cy="19.721737056970596" r="2.7587368600070477" fill="rgba(255,255,255,0.07249941166490317)"/><circle cx="955.9685116633773" cy="338.8219287036918" r="2.332500694785267" fill="rgba(255,255,255,0.04268265142571181)"/><circle cx="954.9864652566612" cy="490.96391055034474" r="2.5459130434319377" fill="rgba(255,255,255,0.046599383915308865)"/><circle cx="357.52970315515995" cy="388.43883014749736" r="2.1925640385597944" fill="rgba(255,255,255,0.0652448591729626)"/><circle cx="223.72071957215667" cy="281.3856799621135" r="1.7312619155272841" fill="rgba(255,255,255,0.033215247928164895)"/><circle cx="419.28535122424364" cy="619.1343159181997" r="1.062578677199781" fill="rgba(255,255,255,0.0687995397206396)"/><circle cx="475.75688268989325" cy="24.87107385881245" r="2.6160557279363275" fill="rgba(255,255,255,0.05935728367883712)"/><circle cx="1123.5864954069257" cy="456.53079931391403" r="1.2712686769664288" fill="rgba(255,255,255,0.06770626296754927)"/>
  <text x="600" y="335" font-family="system-ui, -apple-system, 'Segoe UI', sans-serif" font-size="68" font-weight="700" fill="rgba(0,0,0,0.15)" text-anchor="middle" letter-spacing="1">Comptia Security</text>
  <text x="600" y="332" font-family="system-ui, -apple-system, 'Segoe UI', sans-serif" font-size="68" font-weight="700" fill="white" text-anchor="middle" letter-spacing="1">Comptia Security</text>
  <g transform="translate(1140, 575)">
    <rect x="0" y="0" width="40" height="40" rx="8" fill="rgba(255,255,255,0.15)"/>
    <text x="20" y="29" font-family="sans-serif" font-weight="bold" font-size="24" fill="rgba(255,255,255,0.6)" text-anchor="middle">K</text>
  </g>
</svg>